<svg width="1512" height="158" viewBox="0 0 1512 158" fill="none" xmlns="http://www.w3.org/2000/svg">
<path d="M218.356 65.8021C218.356 100.368 173.763 128.389 118.755 128.389C63.7468 128.389 19.154 100.368 19.154 65.8021C19.154 31.2363 63.7468 3.21528 118.755 3.21528C173.763 3.21528 218.356 31.2363 218.356 65.8021Z" fill="#3FC12A"/>
<path d="M0 19.0139H883V177H0V19.0139Z" fill="#3FC12A"/>
<path d="M687.629 73.0938C687.629 107.659 643.036 135.681 588.028 135.681C533.02 135.681 488.427 107.659 488.427 73.0938C488.427 38.528 533.02 10.5069 588.028 10.5069C643.036 10.5069 687.629 38.528 687.629 73.0938Z" fill="#3FC12A"/>
<path d="M595.69 64.5868C595.69 99.1525 491.926 127.174 363.926 127.174C235.927 127.174 132.163 99.1525 132.163 64.5868C132.163 30.0211 235.927 2 363.926 2C491.926 2 595.69 30.0211 595.69 64.5868Z" fill="#3FC12A"/>
<path d="M860.015 73.0938C860.015 112.358 800.844 144.188 727.853 144.188C654.861 144.188 595.69 112.358 595.69 73.0938C595.69 33.8298 654.861 2 727.853 2C800.844 2 860.015 33.8298 860.015 73.0938Z" fill="#3FC12A"/>
<path d="M812.731 63.8021C812.731 98.3678 765.815 126.389 707.941 126.389C650.068 126.389 603.152 98.3678 603.152 63.8021C603.152 29.2363 650.068 1.21528 707.941 1.21528C765.815 1.21528 812.731 29.2363 812.731 63.8021Z" fill="#3FC12A"/>
<path d="M583 17.0139H1512V175H583V17.0139Z" fill="#3FC12A"/>
<path d="M1306.45 71.0938C1306.45 105.659 1259.54 133.681 1201.66 133.681C1143.79 133.681 1096.87 105.659 1096.87 71.0938C1096.87 36.528 1143.79 8.50694 1201.66 8.50694C1259.54 8.50694 1306.45 36.528 1306.45 71.0938Z" fill="#3FC12A"/>
<path d="M1209.72 62.5868C1209.72 97.1525 1100.55 125.174 965.885 125.174C831.217 125.174 722.048 97.1525 722.048 62.5868C722.048 28.0211 831.217 0 965.885 0C1100.55 0 1209.72 28.0211 1209.72 62.5868Z" fill="#3FC12A"/>
<path d="M1487.82 71.0938C1487.82 110.358 1425.56 142.188 1348.77 142.188C1271.98 142.188 1209.72 110.358 1209.72 71.0938C1209.72 31.8298 1271.98 0 1348.77 0C1425.56 0 1487.82 31.8298 1487.82 71.0938Z" fill="#3FC12A"/>
<rect y="60" width="1512" height="67" fill="#363636"/>
<rect x="1173" y="88" width="130" height="12" fill="#9DA005"/>
<rect x="15" y="88" width="130" height="12" fill="#9DA005"/>
<rect x="208" y="88" width="130" height="12" fill="#9DA005"/>
<rect x="401" y="88" width="130" height="12" fill="#9DA005"/>
<rect x="594" y="88" width="130" height="12" fill="#9DA005"/>
<rect x="787" y="88" width="130" height="12" fill="#9DA005"/>
<rect x="980" y="88" width="130" height="12" fill="#9DA005"/>
<rect x="1366" y="88" width="130" height="12" fill="#9DA005"/>
</svg>
