<svg width="393" height="166" viewBox="0 0 393 166" fill="none" xmlns="http://www.w3.org/2000/svg">
<g filter="url(#filter0_d_1_68)">
<path fill-rule="evenodd" clip-rule="evenodd" d="M10.3769 47.4364C10.1687 25.278 45.5917 7.02076 89.4964 6.6576C118.451 6.4181 143.863 14.0208 157.872 25.5817C180.322 14.6538 216.837 7.36779 258.13 7.02624C326.648 6.45949 382.374 25.2279 382.596 48.9467C382.707 60.6693 369.239 71.4071 347.316 79.3385C355.819 85.6409 360.814 93.2609 360.891 101.502C361.099 123.66 325.676 141.918 281.772 142.281C266.018 142.411 251.313 140.22 238.923 136.333C224.203 145.306 201.94 151.126 176.977 151.333C142.723 151.616 113.353 141.248 101.499 126.374C100.167 126.419 98.8262 126.447 97.4776 126.458C53.5729 126.821 17.8124 109.152 17.6042 86.9941C17.5479 81.0032 20.0963 75.2973 24.7127 70.1533C15.748 63.7458 10.4566 55.9202 10.3769 47.4364Z" fill="white"/>
</g>
<defs>
<filter id="filter0_d_1_68" x="0.375977" y="0.6521" width="392.221" height="164.686" filterUnits="userSpaceOnUse" color-interpolation-filters="sRGB">
<feFlood flood-opacity="0" result="BackgroundImageFix"/>
<feColorMatrix in="SourceAlpha" type="matrix" values="0 0 0 0 0 0 0 0 0 0 0 0 0 0 0 0 0 0 127 0" result="hardAlpha"/>
<feOffset dy="4"/>
<feGaussianBlur stdDeviation="5"/>
<feComposite in2="hardAlpha" operator="out"/>
<feColorMatrix type="matrix" values="0 0 0 0 0 0 0 0 0 0 0 0 0 0 0 0 0 0 0.25 0"/>
<feBlend mode="normal" in2="BackgroundImageFix" result="effect1_dropShadow_1_68"/>
<feBlend mode="normal" in="SourceGraphic" in2="effect1_dropShadow_1_68" result="shape"/>
</filter>
</defs>
</svg>
